<mxfile host="app.diagrams.net" modified="2021-07-09T04:19:46.904Z" agent="5.0 (Windows NT 10.0; Win64; x64) AppleWebKit/537.36 (KHTML, like Gecko) Chrome/91.0.4472.124 Safari/537.36" etag="-ipgzH01p_C5ylZl2l7F" version="14.8.5" type="github">
  <diagram id="YMtxv_z-0oaK6RGvS7nl" name="Page-1">
    <mxGraphModel dx="1069" dy="576" grid="1" gridSize="10" guides="1" tooltips="1" connect="1" arrows="1" fold="1" page="1" pageScale="1" pageWidth="827" pageHeight="1169" math="0" shadow="0">
      <root>
        <mxCell id="0" />
        <mxCell id="1" parent="0" />
        <mxCell id="5_GWOANNCjq7_l7mxy80-1" value="&lt;font style=&quot;font-size: 18px&quot;&gt;组件A&lt;/font&gt;" style="rounded=1;whiteSpace=wrap;html=1;gradientColor=#ffffff;gradientDirection=east;" vertex="1" parent="1">
          <mxGeometry x="370" y="270" width="100" height="50" as="geometry" />
        </mxCell>
        <mxCell id="5_GWOANNCjq7_l7mxy80-2" value="&lt;span style=&quot;font-size: 18px&quot;&gt;组件B&lt;/span&gt;" style="rounded=1;whiteSpace=wrap;html=1;" vertex="1" parent="1">
          <mxGeometry x="220" y="390" width="100" height="50" as="geometry" />
        </mxCell>
        <mxCell id="5_GWOANNCjq7_l7mxy80-3" value="&lt;span style=&quot;font-size: 18px&quot;&gt;组件C&lt;/span&gt;" style="rounded=1;whiteSpace=wrap;html=1;" vertex="1" parent="1">
          <mxGeometry x="510" y="390" width="100" height="50" as="geometry" />
        </mxCell>
        <mxCell id="5_GWOANNCjq7_l7mxy80-30" value="" style="endArrow=classic;html=1;dashed=1;" edge="1" parent="1">
          <mxGeometry width="50" height="50" relative="1" as="geometry">
            <mxPoint x="460" y="330" as="sourcePoint" />
            <mxPoint x="510" y="380" as="targetPoint" />
          </mxGeometry>
        </mxCell>
        <mxCell id="5_GWOANNCjq7_l7mxy80-31" value="" style="endArrow=classic;html=1;dashed=1;" edge="1" parent="1">
          <mxGeometry width="50" height="50" relative="1" as="geometry">
            <mxPoint x="380" y="330" as="sourcePoint" />
            <mxPoint x="330" y="380" as="targetPoint" />
          </mxGeometry>
        </mxCell>
        <mxCell id="5_GWOANNCjq7_l7mxy80-74" value="" style="curved=1;endArrow=classic;html=1;startArrow=none;dashed=1;strokeColor=#666666;" edge="1" parent="1" source="5_GWOANNCjq7_l7mxy80-76">
          <mxGeometry width="50" height="50" relative="1" as="geometry">
            <mxPoint x="400" y="260" as="sourcePoint" />
            <mxPoint x="250" y="380" as="targetPoint" />
            <Array as="points">
              <mxPoint x="220" y="320" />
            </Array>
          </mxGeometry>
        </mxCell>
        <mxCell id="5_GWOANNCjq7_l7mxy80-76" value="&lt;font style=&quot;font-size: 14px&quot;&gt;&lt;b&gt;更新函数&lt;/b&gt;&lt;/font&gt;" style="rounded=1;whiteSpace=wrap;html=1;strokeColor=#23445d;fontSize=14;fillColor=#B3B3B3;" vertex="1" parent="1">
          <mxGeometry x="210" y="260" width="70" height="40" as="geometry" />
        </mxCell>
        <mxCell id="5_GWOANNCjq7_l7mxy80-77" value="" style="curved=1;endArrow=none;html=1;exitX=0;exitY=0.25;exitDx=0;exitDy=0;dashed=1;fillColor=#647687;strokeColor=#314354;" edge="1" parent="1" source="5_GWOANNCjq7_l7mxy80-1" target="5_GWOANNCjq7_l7mxy80-76">
          <mxGeometry width="50" height="50" relative="1" as="geometry">
            <mxPoint x="370" y="282.5" as="sourcePoint" />
            <mxPoint x="250" y="380" as="targetPoint" />
            <Array as="points">
              <mxPoint x="340" y="270" />
            </Array>
          </mxGeometry>
        </mxCell>
        <mxCell id="5_GWOANNCjq7_l7mxy80-79" value="" style="curved=1;endArrow=classic;html=1;startArrow=none;" edge="1" parent="1" source="5_GWOANNCjq7_l7mxy80-81">
          <mxGeometry width="50" height="50" relative="1" as="geometry">
            <mxPoint x="390" y="260" as="sourcePoint" />
            <mxPoint x="230" y="380" as="targetPoint" />
            <Array as="points">
              <mxPoint x="140" y="250" />
            </Array>
          </mxGeometry>
        </mxCell>
        <mxCell id="5_GWOANNCjq7_l7mxy80-81" value="&lt;h4&gt;&lt;font style=&quot;font-size: 15px&quot;&gt;数据&lt;/font&gt;&lt;/h4&gt;" style="rounded=1;whiteSpace=wrap;html=1;fillColor=#e51400;strokeColor=#B20000;fontColor=#ffffff;" vertex="1" parent="1">
          <mxGeometry x="140" y="190" width="70" height="40" as="geometry" />
        </mxCell>
        <mxCell id="5_GWOANNCjq7_l7mxy80-82" value="" style="curved=1;endArrow=none;html=1;" edge="1" parent="1" target="5_GWOANNCjq7_l7mxy80-81">
          <mxGeometry width="50" height="50" relative="1" as="geometry">
            <mxPoint x="390" y="260" as="sourcePoint" />
            <mxPoint x="230" y="380" as="targetPoint" />
            <Array as="points">
              <mxPoint x="350" y="210" />
            </Array>
          </mxGeometry>
        </mxCell>
        <mxCell id="5_GWOANNCjq7_l7mxy80-83" value="" style="curved=1;endArrow=classic;html=1;fontSize=14;strokeColor=#666666;strokeWidth=1;" edge="1" parent="1">
          <mxGeometry width="50" height="50" relative="1" as="geometry">
            <mxPoint x="610" y="380" as="sourcePoint" />
            <mxPoint x="460" y="260" as="targetPoint" />
            <Array as="points">
              <mxPoint x="670" y="310" />
              <mxPoint x="690" y="210" />
              <mxPoint x="620" y="200" />
              <mxPoint x="510" y="230" />
            </Array>
          </mxGeometry>
        </mxCell>
        <mxCell id="5_GWOANNCjq7_l7mxy80-85" value="&lt;h4&gt;&lt;font style=&quot;font-size: 15px&quot;&gt;数据&lt;/font&gt;&lt;/h4&gt;" style="rounded=1;whiteSpace=wrap;html=1;fontSize=14;fillColor=#e51400;strokeColor=#B20000;fontColor=#ffffff;" vertex="1" parent="1">
          <mxGeometry x="630" y="180" width="70" height="40" as="geometry" />
        </mxCell>
        <mxCell id="5_GWOANNCjq7_l7mxy80-87" value="" style="curved=1;endArrow=classic;html=1;fontSize=14;strokeColor=#666666;strokeWidth=1;exitX=1;exitY=0.5;exitDx=0;exitDy=0;dashed=1;" edge="1" parent="1" source="5_GWOANNCjq7_l7mxy80-1">
          <mxGeometry width="50" height="50" relative="1" as="geometry">
            <mxPoint x="390" y="250" as="sourcePoint" />
            <mxPoint x="600" y="380" as="targetPoint" />
            <Array as="points">
              <mxPoint x="490" y="270" />
              <mxPoint x="660" y="270" />
            </Array>
          </mxGeometry>
        </mxCell>
        <mxCell id="5_GWOANNCjq7_l7mxy80-89" value="&lt;b&gt;&lt;font style=&quot;font-size: 14px&quot;&gt;监听函数&lt;/font&gt;&lt;/b&gt;" style="rounded=1;whiteSpace=wrap;html=1;fontSize=14;fillColor=#B3B3B3;gradientColor=#999999;" vertex="1" parent="1">
          <mxGeometry x="560" y="255" width="70" height="35" as="geometry" />
        </mxCell>
      </root>
    </mxGraphModel>
  </diagram>
</mxfile>
